<svg width="213" height="63" viewBox="0 0 213 63" fill="none" xmlns="http://www.w3.org/2000/svg">
<path d="M27.8855 15.25C27.6734 13.2652 26.7794 11.7197 25.2037 10.6136C23.6431 9.50757 21.6128 8.95454 19.1128 8.95454C17.3552 8.95454 15.8476 9.2197 14.59 9.75C13.3324 10.2803 12.3703 11 11.7037 11.9091C11.037 12.8182 10.6961 13.8561 10.6809 15.0227C10.6809 15.9924 10.9006 16.8333 11.34 17.5455C11.7946 18.2576 12.4082 18.8636 13.1809 19.3636C13.9537 19.8485 14.8097 20.2576 15.7491 20.5909C16.6885 20.9242 17.6355 21.2045 18.59 21.4318L22.9537 22.5227C24.7112 22.9318 26.4006 23.4848 28.0218 24.1818C29.6582 24.8788 31.1203 25.7576 32.4082 26.8182C33.7112 27.8788 34.7415 29.1591 35.4991 30.6591C36.2567 32.1591 36.6355 33.9167 36.6355 35.9318C36.6355 38.6591 35.9385 41.0606 34.5446 43.1364C33.1506 45.197 31.1355 46.8106 28.4991 47.9773C25.8779 49.1288 22.7037 49.7045 18.9764 49.7045C15.3552 49.7045 12.2112 49.1439 9.54457 48.0227C6.89305 46.9015 4.81729 45.2652 3.31729 43.1136C1.83245 40.9621 1.02942 38.3409 0.908203 35.25H9.20366C9.32487 36.8712 9.82487 38.2197 10.7037 39.2955C11.5824 40.3712 12.7264 41.1742 14.1355 41.7045C15.5597 42.2348 17.1506 42.5 18.9082 42.5C20.7415 42.5 22.3476 42.2273 23.7264 41.6818C25.1203 41.1212 26.2112 40.3485 26.9991 39.3636C27.787 38.3636 28.1885 37.197 28.2037 35.8636C28.1885 34.6515 27.8324 33.6515 27.1355 32.8636C26.4385 32.0606 25.4612 31.3939 24.2037 30.8636C22.9612 30.3182 21.5067 29.8333 19.84 29.4091L14.5446 28.0455C10.7112 27.0606 7.68093 25.5682 5.45366 23.5682C3.24154 21.553 2.13548 18.8788 2.13548 15.5455C2.13548 12.803 2.8779 10.4015 4.36275 8.34091C5.86275 6.2803 7.90063 4.68182 10.4764 3.54545C13.0521 2.39394 15.9688 1.81818 19.2264 1.81818C22.5294 1.81818 25.4234 2.39394 27.9082 3.54545C30.4082 4.68182 32.3703 6.26515 33.7946 8.29545C35.2188 10.3106 35.9537 12.6288 35.9991 15.25H27.8855Z" fill="black"/>
<path d="M75.6582 62.8182C72.7037 62.8182 70.1658 62.4167 68.0446 61.6136C65.9234 60.8258 64.2188 59.7652 62.9309 58.4318C61.6431 57.0985 60.7491 55.6212 60.2491 54L67.6582 52.2045C67.9915 52.8864 68.4764 53.5606 69.1127 54.2273C69.7491 54.9091 70.6052 55.4697 71.6809 55.9091C72.7718 56.3636 74.1431 56.5909 75.7946 56.5909C78.1279 56.5909 80.0597 56.0227 81.59 54.8864C83.1203 53.7652 83.8855 51.9167 83.8855 49.3409V42.7273H83.4764C83.0521 43.5758 82.4309 44.447 81.6127 45.3409C80.8097 46.2348 79.7415 46.9848 78.4082 47.5909C77.09 48.197 75.4309 48.5 73.4309 48.5C70.7491 48.5 68.3173 47.8712 66.1355 46.6136C63.9688 45.3409 62.2415 43.447 60.9537 40.9318C59.6809 38.4015 59.0446 35.2348 59.0446 31.4318C59.0446 27.5985 59.6809 24.3636 60.9537 21.7273C62.2415 19.0758 63.9764 17.0682 66.1582 15.7045C68.34 14.3258 70.7718 13.6364 73.4537 13.6364C75.4991 13.6364 77.1809 13.9848 78.4991 14.6818C79.8324 15.3636 80.8931 16.1894 81.6809 17.1591C82.4688 18.1136 83.0673 19.0152 83.4764 19.8636H83.9309V14.0909H92.0446V49.5682C92.0446 52.553 91.3324 55.0227 89.9082 56.9773C88.484 58.9318 86.537 60.3939 84.0673 61.3636C81.5976 62.3333 78.7946 62.8182 75.6582 62.8182ZM75.7264 42.0455C77.4688 42.0455 78.9537 41.6212 80.1809 40.7727C81.4082 39.9242 82.34 38.7045 82.9764 37.1136C83.6128 35.5227 83.9309 33.6136 83.9309 31.3864C83.9309 29.1894 83.6128 27.2652 82.9764 25.6136C82.3552 23.9621 81.4309 22.6818 80.2037 21.7727C78.9915 20.8485 77.4991 20.3864 75.7264 20.3864C73.8931 20.3864 72.3627 20.8636 71.1355 21.8182C69.9082 22.7727 68.984 24.0833 68.3627 25.75C67.7415 27.4015 67.4309 29.2803 67.4309 31.3864C67.4309 33.5227 67.7415 35.3939 68.3627 37C68.9991 38.5909 69.9309 39.8333 71.1582 40.7273C72.4006 41.6061 73.9234 42.0455 75.7264 42.0455Z" fill="black"/>
<path d="M108.704 28.5455V49H100.476V14.0909H108.34V20.0227H108.749C109.552 18.0682 110.832 16.5152 112.59 15.3636C114.363 14.2121 116.552 13.6364 119.158 13.6364C121.567 13.6364 123.666 14.1515 125.454 15.1818C127.257 16.2121 128.651 17.7045 129.635 19.6591C130.635 21.6136 131.128 23.9848 131.113 26.7727V49H122.885V28.0455C122.885 25.7121 122.279 23.8864 121.067 22.5682C119.87 21.25 118.211 20.5909 116.09 20.5909C114.651 20.5909 113.37 20.9091 112.249 21.5455C111.143 22.1667 110.272 23.0682 109.635 24.25C109.014 25.4318 108.704 26.8636 108.704 28.5455Z" fill="black"/>
<path fill-rule="evenodd" clip-rule="evenodd" d="M43.7889 14.0909V49H52.0162V14.0909H43.7889Z" fill="black"/>
<path d="M47.9252 9.13636C46.6222 9.13636 45.501 8.70455 44.5616 7.84091C43.6222 6.96212 43.1525 5.90909 43.1525 4.68182C43.1525 3.43939 43.6222 2.38636 44.5616 1.52272C45.501 0.643937 46.6222 0.204544 47.9252 0.204544C49.2434 0.204544 50.3646 0.643937 51.2889 1.52272C52.2283 2.38636 52.698 3.43939 52.698 4.68182C52.698 5.90909 52.2283 6.96212 51.2889 7.84091C50.3646 8.70455 49.2434 9.13636 47.9252 9.13636Z" fill="#2563EB"/>
<path d="M139.136 51C138.667 50.488 138.304 49.8693 138.048 49.144C137.792 48.4187 137.664 47.672 137.664 46.904C139.115 46.904 140.139 46.6693 140.736 46.2C141.333 45.7307 141.632 44.8987 141.632 43.704V13.624C141.632 12.4293 141.333 11.5973 140.736 11.128C140.139 10.616 139.115 10.36 137.664 10.36C137.664 9.592 137.792 8.86666 138.048 8.184C138.304 7.45866 138.667 6.84 139.136 6.328H154.944C155.883 7.30933 156.352 8.65333 156.352 10.36C154.901 10.36 153.835 10.616 153.152 11.128C152.469 11.64 152.128 12.472 152.128 13.624V45.56H154.496C157.611 45.56 159.915 44.536 161.408 42.488C162.944 40.44 163.712 37.56 163.712 33.848H168.192C168.917 34.4027 169.493 35.5973 169.92 37.432C170.347 39.2667 170.56 41.0587 170.56 42.808C170.56 45.496 170.091 47.544 169.152 48.952C168.213 50.3173 166.677 51 164.544 51H139.136Z" fill="#2563EB"/>
<path d="M194.055 51.896C189.575 51.896 185.671 50.936 182.343 49.016C179.015 47.096 176.455 44.4293 174.663 41.016C172.871 37.6027 171.975 33.6987 171.975 29.304C171.975 24.184 172.85 19.8533 174.599 16.312C176.391 12.7707 178.866 10.104 182.023 8.312C185.18 6.52 188.828 5.624 192.967 5.624C195.655 5.624 198.236 6.09333 200.711 7.032C201.351 6.73333 202.268 6.43467 203.463 6.136C204.7 5.83733 205.66 5.66667 206.343 5.624C207.58 8.78133 208.199 13.6027 208.199 20.088H201.991C201.564 17.3573 200.498 15.2453 198.791 13.752C197.127 12.2587 195.122 11.512 192.775 11.512C189.959 11.512 187.74 12.728 186.119 15.16C184.54 17.5493 183.751 21.7093 183.751 27.64C183.751 34.2107 184.54 38.8613 186.119 41.592C187.698 44.3227 190.108 45.688 193.351 45.688C194.546 45.688 195.548 45.56 196.359 45.304C197.17 45.048 197.852 44.6213 198.407 44.024V36.728C198.407 35.6187 197.916 34.8293 196.935 34.36C195.996 33.848 194.503 33.592 192.455 33.592C192.455 32.824 192.604 31.928 192.903 30.904C193.202 29.88 193.564 29.1333 193.991 28.664H207.815C209.479 28.664 210.631 29.1547 211.271 30.136C211.911 31.1173 212.231 32.056 212.231 32.952C212.231 33.3787 212.124 33.7627 211.911 34.104C210.375 34.104 209.18 34.2747 208.327 34.616V41.976C208.327 43.3413 208.562 44.3013 209.031 44.856C209.33 45.1547 209.479 45.5387 209.479 46.008C209.479 46.776 208.775 47.6293 207.367 48.568C205.959 49.5067 204.06 50.296 201.671 50.936C199.324 51.576 196.786 51.896 194.055 51.896Z" fill="#2563EB"/>
</svg>
