<svg width="606" height="149" viewBox="0 0 606 149" fill="none" xmlns="http://www.w3.org/2000/svg">
<path d="M72.131 57.5127L51.3569 58.7911C51.0018 57.0155 50.2383 55.4175 49.0664 53.9971C47.8945 52.5411 46.3498 51.387 44.4322 50.5347C42.5501 49.6469 40.2951 49.203 37.6673 49.203C34.1516 49.203 31.1864 49.9488 28.7717 51.4403C26.3569 52.8962 25.1495 54.8493 25.1495 57.2996C25.1495 59.2528 25.9308 60.904 27.4933 62.2535C29.0558 63.6029 31.7369 64.686 35.5366 65.5028L50.3448 68.4857C58.2994 70.1192 64.2298 72.7471 68.136 76.3692C72.0423 79.9914 73.9954 84.7499 73.9954 90.6448C73.9954 96.007 72.4151 100.712 69.2546 104.761C66.1296 108.809 61.8327 111.969 56.364 114.242C50.9308 116.479 44.663 117.598 37.5607 117.598C26.7298 117.598 18.1005 115.343 11.6729 110.833C5.28089 106.288 1.53445 100.109 0.433594 92.2961L22.7525 91.1242C23.4272 94.4268 25.0607 96.9481 27.6531 98.6881C30.2454 100.393 33.5657 101.245 37.614 101.245C41.5913 101.245 44.7873 100.481 47.2021 98.9545C49.6523 97.392 50.8952 95.3856 50.9308 92.9353C50.8952 90.8756 50.0252 89.1888 48.3207 87.8749C46.6161 86.5255 43.9883 85.4957 40.4371 84.7854L26.2681 81.9623C18.2781 80.3643 12.3299 77.5944 8.42365 73.6526C4.55291 69.7109 2.61754 64.686 2.61754 58.578C2.61754 53.3224 4.038 48.7947 6.87891 44.9949C9.75533 41.1952 13.7859 38.2655 18.9705 36.2059C24.1907 34.1462 30.2987 33.1164 37.2944 33.1164C47.6282 33.1164 55.7603 35.3003 61.6907 39.6682C67.6566 44.0361 71.1367 49.9843 72.131 57.5127Z" fill="black"/>
<path d="M88.2843 116V34.1817H110.976V116H88.2843ZM99.6834 23.6349C96.3098 23.6349 93.4157 22.5162 91.0009 20.279C88.6216 18.0063 87.432 15.2897 87.432 12.1292C87.432 9.00417 88.6216 6.32307 91.0009 4.08585C93.4157 1.81312 96.3098 0.676758 99.6834 0.676758C103.057 0.676758 105.933 1.81312 108.313 4.08585C110.727 6.32307 111.935 9.00417 111.935 12.1292C111.935 15.2897 110.727 18.0063 108.313 20.279C105.933 22.5162 103.057 23.6349 99.6834 23.6349Z" fill="black"/>
<path d="M166.014 148.386C158.663 148.386 152.36 147.374 147.104 145.35C141.884 143.361 137.729 140.645 134.64 137.2C131.55 133.756 129.544 129.885 128.621 125.588L149.608 122.765C150.247 124.398 151.259 125.925 152.644 127.346C154.029 128.766 155.858 129.903 158.131 130.755C160.439 131.643 163.244 132.087 166.547 132.087C171.483 132.087 175.549 130.879 178.745 128.464C181.977 126.085 183.592 122.09 183.592 116.479V101.511H182.634C181.639 103.784 180.148 105.932 178.159 107.957C176.17 109.981 173.614 111.632 170.489 112.91C167.364 114.189 163.635 114.828 159.303 114.828C153.159 114.828 147.566 113.408 142.523 110.567C137.516 107.69 133.521 103.305 130.538 97.4097C127.591 91.4793 126.117 83.9864 126.117 74.931C126.117 65.6626 127.626 57.9211 130.645 51.7066C133.663 45.4921 137.676 40.8401 142.683 37.7506C147.726 34.6611 153.248 33.1164 159.249 33.1164C163.83 33.1164 167.665 33.8976 170.755 35.4601C173.844 36.9871 176.33 38.9047 178.212 41.213C180.13 43.4857 181.604 45.7229 182.634 47.9246H183.486V34.1817H206.018V116.799C206.018 123.759 204.313 129.583 200.904 134.271C197.495 138.958 192.772 142.474 186.735 144.817C180.734 147.197 173.827 148.386 166.014 148.386ZM166.494 97.7826C170.151 97.7826 173.241 96.8771 175.762 95.066C178.319 93.2194 180.272 90.5915 181.621 87.1824C183.006 83.7378 183.699 79.6185 183.699 74.8245C183.699 70.0305 183.024 65.8756 181.675 62.36C180.325 58.8089 178.372 56.0567 175.815 54.1036C173.259 52.1505 170.151 51.1739 166.494 51.1739C162.765 51.1739 159.622 52.186 157.065 54.2101C154.509 56.1988 152.573 58.9687 151.259 62.5198C149.945 66.0709 149.288 70.1725 149.288 74.8245C149.288 79.5475 149.945 83.6313 151.259 87.0759C152.609 90.485 154.544 93.1306 157.065 95.0127C159.622 96.8593 162.765 97.7826 166.494 97.7826Z" fill="black"/>
<path d="M246.767 68.6988V116H224.075V34.1817H245.702V48.6171H246.661C248.472 43.8586 251.508 40.0944 255.769 37.3245C260.031 34.5191 265.197 33.1164 271.27 33.1164C276.952 33.1164 281.906 34.3593 286.131 36.8451C290.357 39.3309 293.642 42.882 295.986 47.4985C298.33 52.0795 299.501 57.5482 299.501 63.9047V116H276.81V67.953C276.845 62.9459 275.567 59.0397 272.974 56.2343C270.382 53.3934 266.813 51.9729 262.268 51.9729C259.214 51.9729 256.515 52.6299 254.171 53.9438C251.863 55.2577 250.052 57.1753 248.738 59.6966C247.46 62.1824 246.803 65.1832 246.767 68.6988Z" fill="black"/>
<path d="M306.772 25.9253V6.909H396.368V25.9253H362.969V116H340.171V25.9253H306.772Z" fill="black"/>
<path d="M422.895 117.545C417.674 117.545 413.022 116.639 408.939 114.828C404.855 112.981 401.623 110.265 399.244 106.678C396.9 103.056 395.728 98.5461 395.728 93.1484C395.728 88.6029 396.563 84.7854 398.232 81.6959C399.901 78.6065 402.174 76.1207 405.05 74.2386C407.927 72.3565 411.194 70.936 414.851 69.9772C418.544 69.0184 422.415 68.3437 426.463 67.953C431.222 67.4559 435.057 66.9942 437.969 66.5681C440.881 66.1065 442.994 65.4317 444.308 64.5439C445.622 63.6562 446.279 62.3422 446.279 60.6022V60.2826C446.279 56.909 445.213 54.2989 443.083 52.4523C440.988 50.6057 438.005 49.6824 434.134 49.6824C430.05 49.6824 426.801 50.588 424.386 52.3991C421.971 54.1746 420.373 56.4118 419.592 59.1107L398.605 57.4062C399.67 52.4346 401.765 48.1377 404.89 44.5155C408.015 40.8579 412.046 38.0525 416.982 36.0993C421.953 34.1107 427.706 33.1164 434.24 33.1164C438.786 33.1164 443.136 33.6491 447.291 34.7144C451.481 35.7797 455.192 37.431 458.424 39.6682C461.691 41.9055 464.265 44.7819 466.147 48.2975C468.029 51.7776 468.971 55.9502 468.971 60.8153V116H447.451V104.654H446.811C445.498 107.211 443.74 109.466 441.538 111.419C439.336 113.337 436.691 114.846 433.601 115.947C430.512 117.012 426.943 117.545 422.895 117.545ZM429.393 101.884C432.731 101.884 435.679 101.227 438.235 99.9133C440.792 98.5638 442.799 96.7528 444.255 94.48C445.711 92.2073 446.439 89.6327 446.439 86.7563V78.0738C445.728 78.5354 444.752 78.9616 443.509 79.3522C442.301 79.7073 440.934 80.0447 439.407 80.3643C437.88 80.6484 436.353 80.9147 434.826 81.1633C433.299 81.3763 431.914 81.5717 430.672 81.7492C428.008 82.1398 425.682 82.7613 423.694 83.6136C421.705 84.4658 420.16 85.6199 419.059 87.0759C417.958 88.4964 417.408 90.2719 417.408 92.4026C417.408 95.4921 418.527 97.8536 420.764 99.4871C423.037 101.085 425.913 101.884 429.393 101.884Z" fill="white"/>
<path d="M509.267 6.909V116H486.575V6.909H509.267Z" fill="black"/>
<path d="M548.005 92.4559L548.059 65.2364H551.361L577.569 34.1817H603.616L568.407 75.3039H563.027L548.005 92.4559ZM527.444 116V6.909H550.136V116H527.444ZM578.581 116L554.504 80.3643L569.632 64.3309L605.161 116H578.581Z" fill="black"/>
</svg>
